# xmcd
#
# Track frame offsets: 
#        150
#        15436
#        29957
#        43870
#        58738
#        73733
#        89853
#        103771
#        118726
#        134179
#        148441
#        164528
#        178653
#        193102
#        207825
#        220533
#        233954
#        248670
#
# Disc length: 3482 seconds
#
# Revision: 1
# Processed by: cddbd v1.5.2PL0 Copyright (c) Steve Scherf et al.
# Submitted via: ExactAudioCopy v0.95b2
#
DISCID=260d9812
DTITLE=Mississippi Sheiks - The Essential (Disk 1)
DYEAR=2003
DGENRE=Blues
TTITLE0=Driving that Thing
TTITLE1=The Jazz Fiddler
TTITLE2=Sitting on Top of the World
TTITLE3=I've Got Blood in My Eyes for You
TTITLE4=I'll be Gone, Long Gone
TTITLE5=Stop and Listen Blues
TTITLE6=New Shake that Thing
TTITLE7=It's Done got Wet
TTITLE8=Sweet Maggie
TTITLE9=Baby Keeps Stealin' Lovin' on Me
TTITLE10=Bootlegger's Blues
TTITLE11=Sales Tax
TTITLE12=Lazy Lazy River
TTITLE13=If You don't Want Me Please don't Dog Me 'Round
TTITLE14=What's the Name of that Thing
TTITLE15=Jail Bird Love Song
TTITLE16=The Sheik Waltz
TTITLE17=Grinding Old Fool
EXTD=
EXTT0=
EXTT1=
EXTT2=
EXTT3=
EXTT4=
EXTT5=
EXTT6=
EXTT7=
EXTT8=
EXTT9=
EXTT10=
EXTT11=
EXTT12=
EXTT13=
EXTT14=
EXTT15=
EXTT16=
EXTT17=
PLAYORDER=
